<svg width="18" height="18" viewBox="0 0 18 18" fill="none" xmlns="http://www.w3.org/2000/svg">
<g clip-path="url(#clip0_10_183)">
<path d="M16.6725 5.93196e-05H1.3275C0.979474 -0.00324412 0.644329 0.131544 0.3955 0.37489C0.146671 0.618237 0.00445022 0.950296 0 1.29831L0 16.7041C0.00474499 17.0518 0.147132 17.3834 0.395962 17.6264C0.644791 17.8693 0.97977 18.0037 1.3275 18.0001H16.6725C17.0206 18.0031 17.3558 17.868 17.6046 17.6245C17.8534 17.381 17.9956 17.0488 18 16.7007V1.29381C17.9938 0.94677 17.8509 0.616206 17.6023 0.373953C17.3537 0.131701 17.0196 -0.00266399 16.6725 5.93196e-05ZM5.337 15.3451H2.66512V6.74556H5.337V15.3451ZM4.0095 5.57556C3.62462 5.57832 3.25249 5.43771 2.96561 5.18111C2.67874 4.92451 2.49765 4.57031 2.45765 4.1875C2.41764 3.80469 2.52157 3.4207 2.74919 3.11033C2.97681 2.79996 3.31182 2.58544 3.68896 2.50857C4.06609 2.43169 4.45834 2.49796 4.78929 2.69447C5.12024 2.89097 5.36618 3.20364 5.47921 3.57157C5.59223 3.93949 5.56424 4.33631 5.4007 4.68473C5.23715 5.03314 4.94975 5.3082 4.5945 5.45631C4.40639 5.53347 4.20494 5.57284 4.00163 5.57218L4.0095 5.57556ZM15.3439 15.3439H12.672V11.1612C12.672 10.1656 12.6551 8.88306 11.2837 8.88306C9.9135 8.88306 9.68062 9.96981 9.68062 11.0971V15.3439H7.01213V6.74669H9.57375V7.92793H9.60975C9.96637 7.25181 10.836 6.53856 12.1365 6.53856C14.8421 6.53293 15.3439 8.31381 15.3439 10.6223V15.3439Z" fill="#4B5563"/>
</g>
<defs>
<clipPath id="clip0_10_183">
<rect width="18" height="18" fill="white"/>
</clipPath>
</defs>
</svg>
