<svg width="1920" height="321" viewBox="0 0 1920 321" fill="none" xmlns="http://www.w3.org/2000/svg">
<g clip-path="url(#clip0_30_7)">
<path fill-rule="evenodd" clip-rule="evenodd" d="M1074 161V265H1076.5H1079V161V57H1076.5H1074V161Z" fill="#CECECD"/>
<path fill-rule="evenodd" clip-rule="evenodd" d="M1200.61 67.088C1199.15 68.237 1197.31 70.427 1196.52 71.955C1193.21 78.352 1132.92 253.505 1133.2 255.907L1133.5 258.5L1148 258.785C1161.34 259.047 1162.63 258.914 1164.08 257.129C1164.95 256.062 1168.53 246.371 1172.02 235.594L1178.37 216H1215.6H1252.83L1259.55 236.25C1263.25 247.387 1266.72 257.074 1267.28 257.776C1268.86 259.775 1296.94 259.046 1298.25 256.972C1298.95 255.858 1290.51 230.587 1267.07 163.631C1249.39 113.133 1234.26 70.802 1233.45 69.562C1231.01 65.843 1227.62 65 1215.09 65C1204.62 65 1202.97 65.238 1200.61 67.088ZM1200.41 144.074L1186.32 190H1215.27C1237.99 190 1244.12 189.731 1243.78 188.75C1243.54 188.063 1237.12 167.7 1229.52 143.5C1221.91 119.3 1215.42 99.196 1215.1 98.824C1214.77 98.453 1208.16 118.815 1200.41 144.074ZM1582.5 110.624C1567.31 111.829 1545.65 116.458 1542.25 119.227C1541.56 119.787 1541 121.32 1541 122.635C1541 125.83 1544.72 139.12 1545.96 140.362C1546.61 141.01 1550.13 140.621 1556.22 139.231C1577.65 134.341 1598.07 133.714 1607 137.672C1615.66 141.512 1620 149.442 1620 161.448V165.798L1595.25 166.272C1568.2 166.791 1564.2 167.443 1552.21 173.288C1534.08 182.127 1524.55 202.01 1527.79 224.232C1530.53 242.984 1541.22 254.086 1562 259.733C1572.34 262.543 1608.84 262.214 1622.77 259.186C1635.68 256.379 1642.87 253.635 1645.75 250.408L1648 247.888L1647.98 199.194C1647.97 147.313 1647.64 143.1 1642.91 133.826C1637.69 123.594 1626.59 115.499 1613.66 112.501C1606.92 110.938 1590.79 109.966 1582.5 110.624ZM1718 110.681C1701.75 111.878 1694.19 114.911 1690.99 121.515C1689.04 125.556 1688.99 127.349 1689.24 192.081L1689.5 258.5L1701.99 258.783C1712.86 259.029 1714.64 258.842 1715.74 257.342C1716.72 256.001 1717 242.462 1717 196.416C1717 143.354 1717.16 137.151 1718.58 136.607C1721.68 135.419 1738.68 136.025 1744.54 137.532C1752.21 139.503 1759.62 143.239 1765.52 148.119C1768.1 150.254 1770.78 152 1771.48 152C1772.86 152 1787 134.009 1787 132.241C1787 130.858 1780.11 125.216 1773.49 121.178C1766.13 116.691 1751.88 112.286 1740.79 111.067C1731.41 110.037 1727.62 109.973 1718 110.681ZM1847.5 111.419C1823.53 116.043 1806.34 131.968 1798.62 156.719C1791.18 180.536 1793.39 212.608 1803.82 232.481C1811.3 246.726 1826.16 257.27 1843.34 260.518C1853.05 262.355 1873 262.382 1883 260.572C1896.94 258.048 1910 251.925 1910 247.91C1910 245.117 1902.22 230.023 1900.43 229.335C1899.6 229.018 1896.36 229.904 1893.21 231.304C1879.42 237.449 1860.67 239.339 1848.98 235.765C1834.32 231.283 1824.67 218.342 1823.25 201.25L1822.73 195L1863.61 194.978C1901.22 194.958 1904.82 194.808 1908.5 193.11C1917.26 189.067 1920 183.247 1920 168.692C1920 139.106 1905.85 119.327 1879.88 112.628C1871.34 110.424 1855.69 109.84 1847.5 111.419ZM1310.59 113.85C1309.81 115.109 1338.88 247.794 1341 252.666C1343.7 258.868 1346.68 260.35 1357.39 260.817C1367.92 261.276 1373.69 260.027 1376.92 256.581C1379.63 253.698 1393.41 209.278 1402.59 173.819C1405.83 161.344 1408.6 151.264 1408.75 151.419C1408.91 151.575 1412.15 163.356 1415.96 177.601C1422.7 202.85 1435.77 247.994 1437.78 253C1438.34 254.375 1440 256.625 1441.47 258C1444.04 260.387 1444.72 260.5 1456.5 260.5C1470.11 260.5 1472.63 259.589 1476.14 253.395C1477.75 250.57 1507 119.556 1507 115.198C1507 113.042 1506.74 113 1493.48 113C1480.4 113 1479.93 113.073 1479.03 115.25C1478.14 117.415 1467.52 174.384 1460.76 213.25C1458.97 223.562 1457.25 232 1456.95 232C1456.64 232 1450.62 211.413 1443.56 186.25C1426.46 125.321 1426.37 125.059 1422.89 121.5C1420.01 118.553 1419.78 118.5 1409.73 118.5C1397.41 118.5 1393.94 119.939 1390.95 126.293C1389.86 128.607 1384.9 145.35 1379.93 163.5C1372.16 191.815 1362.99 224.222 1361.42 228.893C1361.16 229.659 1360.78 230.109 1360.56 229.893C1360.35 229.677 1355.61 204.75 1350.02 174.5C1344.44 144.25 1339.42 118.037 1338.86 116.25L1337.84 113H1324.48C1317.13 113 1310.88 113.383 1310.59 113.85ZM1849.31 135.791C1846.46 136.813 1842.3 138.86 1840.06 140.339C1832.37 145.43 1825.56 157.472 1824.28 168.239L1823.72 173H1858.86H1894L1893.99 170.75C1893.99 169.512 1893.51 165.605 1892.94 162.066C1890.03 144.113 1880.32 135.25 1862.58 134.346C1856.43 134.032 1853.26 134.377 1849.31 135.791ZM156.558 142.248C154.082 142.902 150.881 145.024 147.954 147.951C136.827 159.078 139.804 176.049 154 182.419C159.739 184.995 176.163 189.093 186.322 190.484L191.144 191.144L190.484 186.322C188.968 175.253 184.813 159.099 182.041 153.5C176.902 143.119 168.051 139.212 156.558 142.248ZM1579 190.691C1563.73 193.247 1555.71 201.957 1555.71 215.978C1555.71 226.744 1559.9 232.743 1570.18 236.704C1578.23 239.803 1607.5 238.683 1617.75 234.884C1619.99 234.053 1620 233.951 1620 212.025V190L1600.75 190.136C1590.16 190.211 1580.37 190.461 1579 190.691Z" fill="#FCC414"/>
<path fill-rule="evenodd" clip-rule="evenodd" d="M132 2.01484C66.088 13.6498 13.229 66.8158 1.944 132.828C-0.272998 145.797 -0.710998 171.392 1.082 183.308C6.041 216.282 21.188 247.348 44.035 271.4C71.64 300.461 110.887 318.775 149.75 320.731L161 321.297V305.649V290H154.631C134.291 290 108.691 281.621 88.792 268.45C59.421 249.01 38.56 217.177 32.546 182.619C30.553 171.167 30.553 149.833 32.546 138.381C39.543 98.1748 66.239 62.3468 102.829 44.0558C111.725 39.6078 127.911 34.3678 138.381 32.5458C149.833 30.5528 171.167 30.5528 182.619 32.5458C217.177 38.5598 249.01 59.4208 268.45 88.7918C281.621 108.691 290 134.291 290 154.631V161H305.649H321.297L320.731 149.75C317.985 95.1828 284.398 43.6038 235 18.0938C217.317 8.96184 201.84 3.86884 183.308 1.08184C171.853 -0.641162 144.197 -0.138162 132 2.01484ZM629.275 55.9078C624.41 57.1588 621.232 59.6218 619.137 63.7648C615.455 71.0438 551.879 259.13 552.191 261.822L552.5 264.5L570.656 264.772C585.919 265.001 589.058 264.799 590.352 263.505C591.198 262.659 594.922 252.519 598.627 240.971L605.363 219.976L642.894 220.238L680.425 220.5L687.12 241.286C690.802 252.718 694.37 262.741 695.048 263.558C696.073 264.793 699.414 264.997 714.89 264.772L733.5 264.5L733.811 261.808C734.165 258.738 668.972 67.3968 665.809 62.2258C662.513 56.8368 659.086 55.7078 645 55.3748C638.125 55.2118 631.049 55.4518 629.275 55.9078ZM864.533 56.0888C859.541 57.3098 856.28 60.3338 855.004 64.9258C853.61 69.9448 853.64 260.458 855.035 263.066C855.995 264.86 857.284 265 872.835 265C884.541 265 889.962 264.638 890.8 263.8C891.696 262.904 892 251.835 892 220.157V177.714L914.75 178.275C941.213 178.927 945.735 179.871 952.573 186.174C954.984 188.396 958.051 192.529 959.389 195.357C960.727 198.186 965.45 214.448 969.886 231.495C975.476 252.98 978.486 262.883 979.697 263.768C980.992 264.715 985.969 264.974 998.971 264.772L1016.5 264.5L1016.8 261.429C1017.11 258.298 1001.57 198.282 997.955 188.608C994.162 178.471 988.637 171.943 980.151 167.572L976.803 165.847L981.061 163.74C988.371 160.123 997.592 150.608 1001.52 142.632C1013.06 119.171 1008.69 91.2028 990.717 73.5748C982.587 65.5988 974.674 61.2008 962.342 57.8058C954.954 55.7718 952.009 55.6318 911.5 55.3828C886.116 55.2268 866.875 55.5158 864.533 56.0888ZM443.773 57.5548C435.827 59.4808 428.615 63.3448 422.783 68.7998C417.194 74.0278 414.032 78.9658 410.761 87.5798L408.512 93.4998L408.223 177.858C408.009 240.547 408.232 262.574 409.09 263.608C410.635 265.47 441.957 265.643 443.8 263.8C444.697 262.903 445 251.429 445 218.329V174.058L491.537 173.779C531.608 173.539 538.206 173.292 539.022 172C540.457 169.729 540.264 144.664 538.8 143.2C537.901 142.301 525.962 142 491.229 142H444.858L445.179 120.571C445.531 97.0678 445.649 96.5928 452.384 91.5618C455.055 89.5658 456.64 89.4838 502.023 88.9998C538.623 88.6098 549.187 88.2148 550.201 87.1998C552.216 85.1828 552.037 58.2658 550 56.9788C549.103 56.4118 528.603 56.0578 499 56.0988C460.374 56.1518 448.242 56.4718 443.773 57.5548ZM768.75 57.0798C767.101 58.0398 767 64.0228 767 160.35C767 238.544 767.282 262.882 768.2 263.8C769.882 265.482 801.118 265.482 802.8 263.8C804.541 262.059 804.541 58.9408 802.8 57.1998C801.286 55.6858 771.325 55.5798 768.75 57.0798ZM145.585 59.0358C122.666 62.6508 103.124 72.8578 86.946 89.6628C73.597 103.528 65.37 118.33 60.789 136.726C57.595 149.551 57.638 171.904 60.88 184.365C66.253 205.011 75.493 220.74 90.633 235.009C107.889 251.273 128.344 260.263 153.25 262.53L161 263.235V247.8V232.364L152.548 231.233C134.873 228.868 122.913 222.902 109.98 210C103.258 203.294 100.567 199.706 97.227 193C91.212 180.921 89.544 173.75 89.551 160C89.561 139.699 95.645 125.291 110.468 110.468C125.291 95.6448 139.699 89.5608 160 89.5508C173.75 89.5438 180.921 91.2118 193 97.2268C199.706 100.567 203.294 103.258 210 109.98C222.902 122.913 228.868 134.873 231.233 152.548L232.364 161H247.786H263.208L262.493 152.75C258.635 108.272 228.076 72.1588 184.904 61.0598C175.264 58.5808 155.061 57.5418 145.585 59.0358ZM892 117.989V147.141L919.75 146.821L947.5 146.5L953.497 143.692C956.795 142.148 960.552 139.898 961.846 138.692C965.705 135.095 969.037 127.407 969.669 120.641C970.87 107.775 964.825 96.8658 953.727 91.8758C948.709 89.6198 947.371 89.5118 920.25 89.1818L892 88.8368V117.989ZM640.663 101.685C639.816 104.333 637.482 112.125 635.478 119C633.474 125.875 628.046 143.945 623.417 159.155C618.788 174.366 615 187.078 615 187.405C615 187.732 627.375 188 642.5 188C657.625 188 670 187.65 670 187.222C670 186.795 668.169 180.607 665.932 173.472C663.695 166.338 657.611 146.354 652.413 129.064C647.215 111.775 642.792 97.4578 642.583 97.2498C642.374 97.0408 641.51 99.0368 640.663 101.685Z" fill="#1C3C7C"/>
<path d="M206 320V262.492V204.984L263.25 205.242L320.5 205.5V221V236.5L278.75 236.761L237 237.022V278.511V320H221.5H206Z" fill="#5C85C4"/>
</g>
<defs>
<clipPath id="clip0_30_7">
<rect width="1920" height="321" fill="white"/>
</clipPath>
</defs>
</svg>
