<svg xmlns="http://www.w3.org/2000/svg" version="1.1" xmlns:xlink="http://www.w3.org/1999/xlink" xmlns:svgjs="http://svgjs.dev/svgjs" width="322" height="322"><svg width="322" height="322" viewBox="0 0 322 322" fill="none" xmlns="http://www.w3.org/2000/svg">
<path d="M147.984 147.906C150.911 144.979 154.112 142.857 156.588 142.203C168.081 139.167 176.932 143.074 182.071 153.455C184.843 159.054 188.998 175.208 190.514 186.277L191.174 191.099L186.352 190.439C176.193 189.048 159.769 184.95 154.03 182.374C139.834 176.004 136.857 159.033 147.984 147.906Z" fill="#FCC414"></path>
<path d="M1.97402 132.782C13.259 66.7704 66.118 13.6044 132.03 1.96943C144.227 -0.183572 171.883 -0.686572 183.338 1.03643C201.87 3.82343 217.347 8.91643 235.03 18.0484C284.428 43.5584 318.015 95.1374 320.761 149.704L321.327 160.954H305.679H290.03V154.585C290.03 134.245 281.651 108.645 268.48 88.7464C249.04 59.3754 217.207 38.5144 182.649 32.5004C171.197 30.5074 149.863 30.5074 138.411 32.5004C127.941 34.3224 111.755 39.5624 102.859 44.0104C66.269 62.3014 39.573 98.1294 32.576 138.335C30.583 149.787 30.583 171.121 32.576 182.573C38.59 217.131 59.451 248.964 88.822 268.404C108.721 281.575 134.321 289.954 154.661 289.954H161.03V305.603V321.251L149.78 320.685C110.917 318.729 71.67 300.415 44.065 271.354C21.218 247.302 6.07102 216.236 1.11202 183.262C-0.680977 171.346 -0.242977 145.751 1.97402 132.782Z" fill="#1C3C7C"></path>
<path d="M86.976 89.6174C103.154 72.8124 122.696 62.6054 145.615 58.9904C155.091 57.4964 175.294 58.5354 184.934 61.0144C228.106 72.1134 258.665 108.226 262.523 152.704L263.238 160.954H247.816H232.394L231.263 152.502C228.898 134.827 222.932 122.867 210.03 109.934C203.324 103.212 199.736 100.521 193.03 97.1814C180.951 91.1664 173.78 89.4984 160.03 89.5054C139.729 89.5154 125.321 95.5994 110.498 110.422C95.675 125.245 89.591 139.653 89.581 159.954C89.574 173.704 91.242 180.875 97.257 192.954C100.597 199.66 103.288 203.248 110.01 209.954C122.943 222.856 134.903 228.822 152.578 231.187L161.03 232.318V247.754V263.189L153.28 262.484C128.374 260.217 107.919 251.227 90.663 234.963C75.523 220.694 66.283 204.965 60.91 184.319C57.668 171.858 57.625 149.505 60.819 136.68C65.4 118.284 73.627 103.482 86.976 89.6174Z" fill="#1C3C7C"></path>
<path d="M206.03 319.954V262.447V204.938L263.28 205.196L320.53 205.454V220.954V236.454L278.78 236.715L237.03 236.976V278.465V319.954H221.53H206.03Z" fill="#5C85C4"></path>
</svg><style>@media (prefers-color-scheme: light) { :root { filter: none; } }
@media (prefers-color-scheme: dark) { :root { filter: none; } }
</style></svg>