<svg width="236" height="90" viewBox="0 0 236 90" fill="none" xmlns="http://www.w3.org/2000/svg">
<path d="M48.0002 44.9003C45.0002 32.7003 34.2002 29.3003 22.2002 29.3003H9.7002V75.4003H15.3002V44.9003H19.0002V36.6003H24.2002C29.7002 36.6003 35.1002 39.6003 37.7002 44.9003H25.7002V75.4003H28.2002C39.0002 75.4003 49.4002 67.4003 49.4002 53.3003C49.5002 50.2003 49.0002 47.4003 48.0002 44.9003Z" fill="#00AFDB"/>
<path d="M91.4 44.8999H77.7L83 29.3999H74.9L68.9 44.8999L57 75.4999H66.5L70.5 64.8999H89.2L93.2 75.4999H103.4L91.4 44.8999Z" fill="#00AFDB"/>
<path d="M148.7 29.3999V57.6999H142.2L127.8 29.3999H116.5V75.4999H125.3V44.8999H127.4L143.1 75.4999H154.4V57.6999H159.7V29.3999H148.7Z" fill="#00AFDB"/>
<path d="M184.4 42.3002C184.4 37.3002 188.5 35.9002 191.7 35.9002C194.8 35.9002 197.9 36.6002 200.8 37.8002V30.0002C197.7 29.1002 194.4 28.7002 190.9 28.7002C182.8 28.7002 173.8 32.5002 173.8 42.8002C173.8 49.9002 178.1 53.8002 182.5 56.6002C182.7 56.7002 184.2 54.3002 184.4 54.4002C189.6 56.6002 195 58.7002 195 63.2002C195 67.4002 190.3 69.1002 186.8 69.1002C185.9 69.1002 184.9 69.0002 184 68.9002V76.2002C185 76.3002 186.1 76.3002 187.3 76.3002C192.6 76.3002 197.5 75.0002 200.7 72.1002V53.2002C194.9 47.9002 184.4 48.1002 184.4 42.3002Z" fill="#00AFDB"/>
<path d="M27.2001 13.2002H28.9001C31.6001 13.2002 32.8001 14.6002 32.8001 16.3002C32.8001 19.0002 31.1001 20.9002 27.9001 20.9002H25.6001L27.2001 13.2002ZM26.9001 19.9002H28.0001C30.2001 19.9002 31.5001 18.5002 31.5001 16.4002C31.5001 15.1002 30.9001 14.1002 28.7001 14.1002H28.1001L26.9001 19.9002Z" fill="#EE3224"/>
<path d="M34.7004 15.4001C35.2004 15.2001 35.9004 15.1001 36.3004 15.1001C37.4004 15.1001 38.5004 15.5001 38.5004 16.9001C38.5004 17.2001 38.5004 17.5001 38.4004 17.8001C38.2004 18.8001 38.0004 19.9001 37.8004 20.9001H36.8004C36.9004 20.6001 36.9004 20.3001 37.0004 20.0001C36.6004 20.7001 35.9004 21.1001 35.2004 21.1001C34.3004 21.1001 33.4004 20.6001 33.4004 19.5001C33.4004 17.9001 34.8004 17.5001 36.7004 17.5001C36.9004 17.5001 37.2004 17.5001 37.4004 17.5001C37.4004 17.4001 37.5004 17.3001 37.5004 17.1001C37.5004 16.3001 37.0004 16.0001 36.2004 16.0001C35.6004 16.0001 34.9004 16.2001 34.5004 16.5001L34.7004 15.4001ZM37.2004 18.2001H36.4004C35.6004 18.2001 34.4004 18.4001 34.4004 19.4001C34.4004 19.9001 34.8004 20.2001 35.3004 20.2001C36.4004 20.2001 37.1004 19.1001 37.2004 18.2001Z" fill="#EE3224"/>
<path d="M40 15.3001H41.3L41.6 14.0001L42.7 13.6001L42.3 15.3001H43.8L43.6 16.1001H42L41.5 18.5001C41.4 18.8001 41.3 19.4001 41.3 19.6001C41.3 20.0001 41.5 20.2001 42 20.2001C42.2 20.2001 42.5 20.1001 42.7 20.1001L42.5 21.0001C42.5 21.0001 42 21.0001 41.8 21.0001C40.8 21.0001 40.5 20.4001 40.5 19.8001C40.5 19.4001 40.6 18.8001 40.7 18.5001L41.2 16.2001H40V15.3001Z" fill="#EE3224"/>
<path d="M45.1003 15.4001C45.6003 15.2001 46.3003 15.1001 46.7003 15.1001C47.8003 15.1001 48.9003 15.5001 48.9003 16.9001C48.9003 17.2001 48.9003 17.5001 48.8003 17.8001C48.6003 18.8001 48.4003 19.9001 48.2003 20.9001H47.2003C47.3003 20.6001 47.3003 20.3001 47.4003 20.0001C47.0003 20.7001 46.3003 21.1001 45.6003 21.1001C44.7003 21.1001 43.8003 20.6001 43.8003 19.5001C43.8003 17.9001 45.2003 17.5001 47.1003 17.5001C47.3003 17.5001 47.6003 17.5001 47.8003 17.5001C47.8003 17.4001 47.9003 17.3001 47.9003 17.1001C47.9003 16.3001 47.4003 16.0001 46.6003 16.0001C46.0003 16.0001 45.3003 16.2001 44.9003 16.5001L45.1003 15.4001ZM47.6003 18.2001H46.8003C46.0003 18.2001 44.8003 18.4001 44.8003 19.4001C44.8003 19.9001 45.2003 20.2001 45.7003 20.2001C46.9003 20.2001 47.5003 19.1001 47.6003 18.2001Z" fill="#EE3224"/>
<path d="M57.4004 13.2002H58.5004L60.2004 20.9002H59.0004L58.6004 19.0002H54.8004L53.6004 20.9002H52.4004L57.4004 13.2002ZM57.7004 14.4002L55.4004 18.1002H58.4004L57.7004 14.4002Z" fill="#EE3224"/>
<path d="M62.0002 16.1002C62.0002 15.9002 62.1002 15.6002 62.2002 15.2002H63.2002L63.0002 16.2002C63.3002 15.7002 63.9002 15.2002 64.9002 15.2002C65.0002 15.2002 65.2002 15.2002 65.4002 15.3002L65.2002 16.2002C65.0002 16.1002 64.8002 16.1002 64.8002 16.1002C63.5002 16.1002 62.9002 17.5002 62.8002 18.2002L62.2002 21.0002H61.2002L62.0002 16.1002Z" fill="#EE3224"/>
<path d="M69.8 16.3002C69.4 16.1002 69.1 16.0002 68.8 16.0002C67.5 16.0002 66.6 17.2002 66.6 18.5002C66.6 19.5002 67.1 20.2002 68.1 20.2002C68.5 20.2002 68.9 20.1002 69.2 19.9002L69 20.9002C68.7 21.0002 68.3 21.0002 68 21.0002C66.5 21.0002 65.5 20.2002 65.5 18.7002C65.5 16.8002 66.6 15.2002 68.6 15.2002C69.2 15.2002 69.6 15.3002 70.1 15.4002L69.8 16.3002Z" fill="#EE3224"/>
<path d="M72 12.6001H73L72.3 16.0001C72.7 15.4001 73.4 15.2001 74.1 15.2001C75.2 15.2001 76 15.8001 76 17.0001C76 17.3001 75.9 17.7001 75.9 18.0001L75.3 21.0001H74.3L75 17.6001C75 17.4001 75.1 17.2001 75.1 17.1001C75.1 16.5001 74.7 16.1001 74.1 16.1001C72.8 16.1001 72.2 17.5001 72.1 18.2001L71.5 21.0001H70.5L72 12.6001Z" fill="#EE3224"/>
<path d="M78.3001 15.3003H79.3001L78.1001 20.9003H77.1001L78.3001 15.3003ZM79.6001 14.0003H78.4001L78.6001 12.8003H79.8001L79.6001 14.0003Z" fill="#EE3224"/>
<path d="M80.5 15.3003H81.6L82.1 19.8003H82.2L84.7 15.3003H85.8L82.6 20.9003H81.4L80.5 15.3003Z" fill="#EE3224"/>
<path d="M86.9002 15.3003H87.9002L86.7002 20.9003H85.7002L86.9002 15.3003ZM88.2002 14.0003H87.0002L87.2002 12.8003H88.4002L88.2002 14.0003Z" fill="#EE3224"/>
<path d="M89.7 16.1001C89.7 15.9001 89.8 15.6001 89.9 15.2001H90.9L90.7 16.1001C91 15.6001 91.6 15.1001 92.6 15.1001C93.7 15.1001 94.5 15.7001 94.5 16.9001C94.5 17.2001 94.4 17.6001 94.4 17.9001L93.8 20.9001H92.8L93.5 17.5001C93.5 17.3001 93.6 17.1001 93.6 17.0001C93.6 16.4001 93.2 16.0001 92.6 16.0001C91.3 16.0001 90.7 17.4001 90.6 18.1001L90 20.9001H89L89.7 16.1001Z" fill="#EE3224"/>
<path d="M101.5 15.3002L100.2 21.3002C100 22.4002 98.9003 23.3002 97.2003 23.3002C96.8003 23.3002 95.9003 23.2002 95.3003 22.9002L95.5003 22.0002C96.0003 22.3002 96.7003 22.5002 97.3003 22.5002C98.5003 22.5002 99.0003 21.7002 99.3003 20.9002L99.4003 20.3002C99.1003 20.7002 98.6003 20.9002 97.7003 20.9002C96.7003 20.9002 95.6003 20.1002 95.6003 18.7002C95.6003 16.6002 96.8003 15.2002 98.4003 15.2002C99.2003 15.2002 99.9003 15.5002 100.2 16.3002L100.4 15.3002H101.5ZM98.0003 20.1002C98.9003 20.1002 99.9003 19.4002 99.9003 17.6002C99.9003 16.8002 99.4003 16.1002 98.5003 16.1002C97.3003 16.1002 96.7003 17.6002 96.7003 18.7002C96.8003 19.3002 97.1003 20.1002 98.0003 20.1002Z" fill="#EE3224"/>
<path d="M106.5 15.4001C107 15.2001 107.7 15.1001 108.1 15.1001C109.2 15.1001 110.3 15.5001 110.3 16.9001C110.3 17.2001 110.3 17.5001 110.2 17.8001C110 18.8001 109.8 19.9001 109.6 20.9001H108.6C108.7 20.6001 108.7 20.3001 108.8 20.0001C108.4 20.7001 107.7 21.1001 107 21.1001C106.1 21.1001 105.2 20.6001 105.2 19.5001C105.2 17.9001 106.6 17.5001 108.5 17.5001C108.7 17.5001 109 17.5001 109.2 17.5001C109.2 17.4001 109.3 17.3001 109.3 17.1001C109.3 16.3001 108.8 16.0001 108 16.0001C107.4 16.0001 106.7 16.2001 106.3 16.5001L106.5 15.4001ZM109 18.2001H108.2C107.4 18.2001 106.2 18.4001 106.2 19.4001C106.2 19.9001 106.6 20.2001 107.1 20.2001C108.2 20.2001 108.9 19.1001 109 18.2001Z" fill="#EE3224"/>
<path d="M112.4 16.1001C112.4 15.9001 112.5 15.6001 112.6 15.2001H113.6L113.4 16.1001C113.7 15.6001 114.3 15.1001 115.3 15.1001C116.4 15.1001 117.2 15.7001 117.2 16.9001C117.2 17.2001 117.1 17.6001 117.1 17.9001L116.5 20.9001H115.5L116.2 17.5001C116.2 17.3001 116.3 17.1001 116.3 17.0001C116.3 16.4001 115.9 16.0001 115.3 16.0001C114 16.0001 113.4 17.4001 113.3 18.1001L112.7 20.9001H111.7L112.4 16.1001Z" fill="#EE3224"/>
<path d="M123.4 19.0001C123.3 19.6001 123.2 20.2001 123.1 20.9001H122.1C122.2 20.6001 122.2 20.3001 122.3 20.0001C121.9 20.7001 121.2 21.0001 120.4 21.0001C119 21.0001 118.3 19.9001 118.3 18.6001C118.3 16.8001 119.3 15.1001 121.2 15.1001C122 15.1001 122.7 15.4001 123 16.2001L123.7 12.6001H124.7L123.4 19.0001ZM120.7 20.2001C122 20.2001 122.6 18.6001 122.6 17.5001C122.6 16.7001 122.1 16.0001 121.2 16.0001C120 16.0001 119.3 17.6001 119.3 18.6001C119.4 19.5001 119.8 20.2001 120.7 20.2001Z" fill="#EE3224"/>
<path d="M129.6 13.2002H131.1L133.3 19.7002L134.6 13.2002H135.7L134 20.9002H132.6L130.4 14.5002L129.1 20.9002H128L129.6 13.2002Z" fill="#EE3224"/>
<path d="M140.3 20.8002C139.8 20.9002 139.2 21.0002 138.6 21.0002C137.2 21.0002 136 20.4002 136 18.5002C136 16.9002 137.1 15.2002 139.1 15.2002C140.5 15.2002 141.2 16.0002 141.2 17.3002C141.2 17.7002 141.2 18.0002 141.1 18.3002H137.2C137.2 18.4002 137.2 18.5002 137.2 18.7002C137.2 19.9002 137.9 20.2002 138.9 20.2002C139.4 20.2002 140 20.1002 140.5 19.9002L140.3 20.8002ZM140.2 17.6002C140.2 17.4002 140.2 17.3002 140.2 17.2002C140.2 16.5002 139.8 16.1002 139 16.1002C138.2 16.1002 137.5 16.8002 137.3 17.7002H140.2V17.6002Z" fill="#EE3224"/>
<path d="M142.5 15.3001H143.8L144 14.0001L145.1 13.6001L144.7 15.3001H146.2L146 16.1001H144.4L143.9 18.5001C143.8 18.8001 143.7 19.4001 143.7 19.6001C143.7 20.0001 143.9 20.2001 144.4 20.2001C144.6 20.2001 144.9 20.1001 145.1 20.1001L144.9 21.0001C144.7 21.1001 144.2 21.1001 143.9 21.1001C142.9 21.1001 142.6 20.5001 142.6 19.9001C142.6 19.5001 142.7 18.9001 142.8 18.6001L143.3 16.3001H142.1L142.5 15.3001Z" fill="#EE3224"/>
<path d="M146.7 15.3003H147.8L148.2 19.8003L150.6 15.3003H151.8L152.2 19.8003L154.6 15.3003H155.7L152.7 20.9003H151.5L151 16.4003L148.6 20.9003H147.4L146.7 15.3003Z" fill="#EE3224"/>
<path d="M158.9 15.2002C160.4 15.2002 161.4 16.1002 161.4 17.7002C161.4 19.6002 160.3 21.1002 158.3 21.1002C156.8 21.1002 155.7 20.3002 155.7 18.6002C155.7 16.7002 156.8 15.2002 158.9 15.2002ZM158.2 20.2002C159.4 20.2002 160.2 18.9002 160.2 17.6002C160.2 16.8002 159.7 16.0002 158.8 16.0002C157.4 16.0002 156.7 17.5002 156.7 18.6002C156.8 19.5002 157.3 20.2002 158.2 20.2002Z" fill="#EE3224"/>
<path d="M163.3 16.1001C163.3 15.9001 163.4 15.6001 163.5 15.2001H164.5L164.3 16.1001C164.6 15.6001 165.2 15.1001 166.2 15.1001C166.3 15.1001 166.5 15.1001 166.7 15.2001L166.5 16.1001C166.3 16.0001 166.1 16.0001 166.1 16.0001C164.8 16.0001 164.2 17.4001 164.1 18.1001L163.5 20.9001H162.5L163.3 16.1001Z" fill="#EE3224"/>
<path d="M168.4 12.6001H169.4L168.3 17.5001H168.4L171 15.3001H172.5L169.3 17.8001L171.6 20.9001H170.3L168.2 18.0001L167.6 20.9001H166.6L168.4 12.6001Z" fill="#EE3224"/>
<path d="M177.1 20.8002C176.6 20.9002 176 21.0002 175.4 21.0002C174 21.0002 172.8 20.4002 172.8 18.5002C172.8 16.9002 173.9 15.2002 175.9 15.2002C177.3 15.2002 178 16.0002 178 17.3002C178 17.7002 178 18.0002 177.9 18.3002H174C174 18.4002 174 18.5002 174 18.7002C174 19.9002 174.7 20.2002 175.7 20.2002C176.2 20.2002 176.8 20.1002 177.3 19.9002L177.1 20.8002ZM177 17.6002C177 17.4002 177 17.3002 177 17.2002C177 16.5002 176.6 16.1002 175.8 16.1002C175 16.1002 174.3 16.8002 174.1 17.7002H177V17.6002Z" fill="#EE3224"/>
<path d="M184.1 19.0001C184 19.6001 183.9 20.2001 183.8 20.9001H182.8C182.9 20.6001 182.9 20.3001 183 20.0001C182.6 20.7001 181.9 21.0001 181.1 21.0001C179.7 21.0001 179 19.9001 179 18.6001C179 16.8001 180 15.1001 181.9 15.1001C182.7 15.1001 183.4 15.4001 183.7 16.2001L184.4 12.6001H185.4L184.1 19.0001ZM181.5 20.2001C182.8 20.2001 183.4 18.6001 183.4 17.5001C183.4 16.7001 182.9 16.0001 182 16.0001C180.8 16.0001 180.1 17.6001 180.1 18.6001C180.1 19.5001 180.5 20.2001 181.5 20.2001Z" fill="#EE3224"/>
<path d="M193.6 14.4001C193.2 14.2001 192.8 14.0001 192.2 14.0001C191.5 14.0001 190.7 14.3001 190.7 15.2001C190.7 16.5001 193.3 16.5001 193.3 18.5001C193.3 19.7001 192.5 21.0001 190.6 21.0001C189.7 21.0001 189.1 20.8001 188.5 20.6001L188.9 19.6001C189.4 19.9001 190 20.1001 190.5 20.1001C191.7 20.1001 192.2 19.4001 192.2 18.7001C192.2 17.1001 189.6 17.4001 189.6 15.3001C189.6 13.9001 190.9 13.1001 192.1 13.1001C192.7 13.1001 193.4 13.2001 193.9 13.5001L193.6 14.4001Z" fill="#EE3224"/>
<path d="M198.6 20.8002C198.1 20.9002 197.5 21.0002 196.9 21.0002C195.5 21.0002 194.3 20.4002 194.3 18.5002C194.3 16.9002 195.4 15.2002 197.4 15.2002C198.8 15.2002 199.5 16.0002 199.5 17.3002C199.5 17.7002 199.5 18.0002 199.4 18.3002H195.5C195.5 18.4002 195.5 18.5002 195.5 18.7002C195.5 19.9002 196.2 20.2002 197.2 20.2002C197.7 20.2002 198.3 20.1002 198.8 19.9002L198.6 20.8002ZM198.5 17.6002C198.5 17.4002 198.5 17.3002 198.5 17.2002C198.5 16.5002 198.1 16.1002 197.3 16.1002C196.5 16.1002 195.8 16.8002 195.6 17.7002H198.5V17.6002Z" fill="#EE3224"/>
<path d="M201.3 16.1001C201.3 15.9001 201.4 15.6001 201.5 15.2001H202.5L202.3 16.1001C202.6 15.6001 203.2 15.1001 204.2 15.1001C204.3 15.1001 204.5 15.1001 204.7 15.2001L204.5 16.1001C204.3 16.0001 204.1 16.0001 204.1 16.0001C202.8 16.0001 202.2 17.4001 202.1 18.1001L201.5 20.9001H200.5L201.3 16.1001Z" fill="#EE3224"/>
<path d="M205 15.3003H206.1L206.7 19.8003L209.2 15.3003H210.3L207.1 20.9003H205.9L205 15.3003Z" fill="#EE3224"/>
<path d="M211.4 15.3003H212.4L211.2 20.9003H210.2L211.4 15.3003ZM212.8 14.0003H211.6L211.8 12.8003H213L212.8 14.0003Z" fill="#EE3224"/>
<path d="M217.7 16.3002C217.3 16.1002 217 16.0002 216.7 16.0002C215.4 16.0002 214.5 17.2002 214.5 18.5002C214.5 19.5002 215 20.2002 216 20.2002C216.4 20.2002 216.8 20.1002 217.1 19.9002L216.9 20.9002C216.6 21.0002 216.2 21.0002 215.8 21.0002C214.3 21.0002 213.3 20.2002 213.3 18.7002C213.3 16.8002 214.4 15.2002 216.4 15.2002C217 15.2002 217.4 15.3002 217.9 15.4002L217.7 16.3002Z" fill="#EE3224"/>
<path d="M222.5 20.8002C222 20.9002 221.4 21.0002 220.8 21.0002C219.4 21.0002 218.2 20.4002 218.2 18.5002C218.2 16.9002 219.3 15.2002 221.3 15.2002C222.7 15.2002 223.4 16.0002 223.4 17.3002C223.4 17.7002 223.4 18.0002 223.3 18.3002H219.4C219.4 18.4002 219.4 18.5002 219.4 18.7002C219.4 19.9002 220.1 20.2002 221.1 20.2002C221.6 20.2002 222.2 20.1002 222.7 19.9002L222.5 20.8002ZM222.4 17.6002C222.4 17.4002 222.4 17.3002 222.4 17.2002C222.4 16.5002 222 16.1002 221.2 16.1002C220.4 16.1002 219.7 16.8002 219.5 17.7002H222.4V17.6002Z" fill="#EE3224"/>
<path d="M227.9 16.3001C227.6 16.2001 227.2 16.0001 226.8 16.0001C226.3 16.0001 225.8 16.1001 225.8 16.7001C225.8 17.7001 227.7 17.7001 227.7 19.3001C227.7 20.7001 226.5 21.1001 225.6 21.1001C224.7 21.1001 224.4 21.0001 224 20.8001L224.2 19.9001C224.6 20.1001 225 20.2001 225.5 20.2001C226.1 20.2001 226.7 20.0001 226.7 19.3001C226.7 18.3001 224.8 18.2001 224.8 16.8001C224.8 15.6001 226 15.1001 226.9 15.1001C227.4 15.1001 227.9 15.2001 228.4 15.4001L227.9 16.3001Z" fill="#EE3224"/>
</svg>
